<?xml version="1.0" encoding="iso-8859-1"?>
<!-- Generator: Adobe Illustrator 19.0.0, SVG Export Plug-In . SVG Version: 6.00 Build 0)  -->
<svg version="1.1" id="Layer_1" xmlns="http://www.w3.org/2000/svg" xmlns:xlink="http://www.w3.org/1999/xlink" x="0px" y="0px"
	 viewBox="0 0 512 512" style="enable-background:new 0 0 512 512;" xml:space="preserve">
<g>
	<g>
		<g>
			<path d="M288.06,76.459c0.107-0.597,0.363-1.152,0.363-1.792c0-2.752-1.024-5.248-2.731-7.125l-19.029-38.059V10.667
				C266.663,4.779,261.884,0,255.996,0c-5.888,0-10.667,4.779-10.667,10.667v18.816l-20.203,40.427
				c-0.043,0.085-0.021,0.192-0.064,0.277c-0.64,1.365-1.067,2.88-1.067,4.501c0,34.603-2.496,66.368-6.741,96h77.461
				C290.578,141.568,288.146,110.357,288.06,76.459z"/>
			<path d="M445.991,495.104l-12.373-17.088c-20.544-28.309-42.56-59.115-63.232-94.016h13.611c5.888,0,10.667-4.779,10.667-10.667
				c0-5.888-4.779-10.667-10.667-10.667H138.663c-5.888,0-10.667,4.779-10.667,10.667c0,5.888,4.779,10.667,10.667,10.667h2.923
				c-20.651,34.923-42.688,65.707-63.232,94.016L65.98,495.104c-2.325,3.243-2.645,7.552-0.832,11.115
				c1.813,3.563,5.504,5.781,9.515,5.781h85.909c3.029,0,5.909-1.301,7.957-3.541c2.027-2.261,2.987-5.269,2.667-8.299
				c-0.363-3.115-0.533-6.293-0.533-9.493c0-47.061,38.272-85.333,85.333-85.333s85.333,38.272,85.333,85.333
				c0,3.2-0.171,6.379-0.512,9.493c-0.341,3.029,0.64,6.016,2.667,8.299c2.027,2.24,4.907,3.541,7.957,3.541h85.909
				c4.011,0,7.659-2.219,9.493-5.781C448.679,502.656,448.338,498.347,445.991,495.104z"/>
			<path d="M216.316,341.333l18.901-56.704c1.451-4.352,5.525-7.296,10.112-7.296h21.333c4.587,0,8.661,2.944,10.112,7.296
				l18.901,56.704h51.307c-18.219-37.013-33.557-79.381-44.181-128h6.507c5.888,0,10.667-4.779,10.667-10.667
				S315.196,192,309.308,192H202.663c-5.888,0-10.667,4.779-10.667,10.667s4.779,10.667,10.667,10.667h6.507
				c-10.603,48.619-25.963,90.987-44.181,128H216.316z"/>
		</g>
	</g>
</g>
<g>
</g>
<g>
</g>
<g>
</g>
<g>
</g>
<g>
</g>
<g>
</g>
<g>
</g>
<g>
</g>
<g>
</g>
<g>
</g>
<g>
</g>
<g>
</g>
<g>
</g>
<g>
</g>
<g>
</g>
</svg>
